<svg width="338" height="327" viewBox="0 0 338 327" fill="none" xmlns="http://www.w3.org/2000/svg">
<path d="M225.714 313.326C225.355 313.326 224.999 313.169 224.757 312.868L129.455 194.374C129.03 193.846 129.114 193.073 129.642 192.647C130.17 192.223 130.943 192.307 131.368 192.834L226.67 311.328C227.095 311.856 227.011 312.629 226.483 313.055C226.256 313.237 225.984 313.326 225.714 313.326Z" fill="#E03C03"/>
<path d="M77.8794 313.326C77.6094 313.326 77.3374 313.237 77.1104 313.055C76.5824 312.63 76.4984 311.857 76.9234 311.328L172.225 192.834C172.652 192.307 173.423 192.223 173.951 192.647C174.479 193.072 174.563 193.845 174.138 194.374L78.8364 312.868C78.5944 313.169 78.2384 313.326 77.8794 313.326Z" fill="#FF6224"/>
<path d="M173.183 313.326C172.824 313.326 172.468 313.169 172.225 312.868L76.9234 194.374C76.4984 193.846 76.5824 193.073 77.1104 192.647C77.6394 192.223 78.4114 192.307 78.8364 192.834L174.138 311.328C174.563 311.856 174.479 312.629 173.951 313.055C173.725 313.237 173.453 313.326 173.183 313.326Z" fill="#FF6224"/>
<path d="M94.7677 196.751H50.4917C48.7547 196.751 47.3457 195.343 47.3457 193.605C47.3457 191.868 48.7537 190.459 50.4917 190.459H94.7677C96.5047 190.459 97.9137 191.867 97.9137 193.605C97.9137 195.342 96.5047 196.751 94.7677 196.751Z" fill="#E03C03"/>
<path d="M222.16 196.751H95.6118C93.8748 196.751 92.4668 195.343 92.4668 193.605C92.4668 191.868 93.8748 190.459 95.6118 190.459H222.16V196.751Z" fill="#FF6224"/>
<path d="M128.968 252.852C128.968 254.75 127.43 256.288 125.532 256.288C123.634 256.288 122.096 254.75 122.096 252.852C122.096 250.954 123.634 249.416 125.532 249.416C127.43 249.416 128.968 250.954 128.968 252.852Z" fill="#E03C03"/>
<path d="M181.497 252.852C181.497 254.75 179.959 256.288 178.061 256.288C176.163 256.288 174.625 254.75 174.625 252.852C174.625 250.954 176.163 249.416 178.061 249.416C179.958 249.416 181.497 250.954 181.497 252.852Z" fill="#FFC947"/>
<path d="M135.776 96.5426H91.1696C88.9666 96.5426 87.1816 94.7566 87.1816 92.5546V59.3806C87.1816 57.1776 88.9666 55.3926 91.1696 55.3926H135.776C137.979 55.3926 139.764 57.1786 139.764 59.3806V92.5546C139.764 94.7566 137.979 96.5426 135.776 96.5426Z" fill="#20C3C5"/>
<path d="M124.883 73.5635H123.232C122.979 72.6615 122.605 71.8065 122.118 71.0235L123.392 69.7495C123.878 69.2635 123.878 68.4765 123.392 67.9905L121.599 66.1975C121.113 65.7115 120.326 65.7115 119.84 66.1975L118.486 67.5515C117.738 67.1305 116.936 66.7995 116.089 66.5855V64.5555C116.089 63.8685 115.532 63.3125 114.846 63.3125H112.311C111.624 63.3125 111.068 63.8695 111.068 64.5555V66.6085C110.246 66.8205 109.467 67.1315 108.741 67.5325L107.255 66.0465C106.769 65.5605 105.982 65.5605 105.496 66.0465L103.703 67.8395C103.217 68.3255 103.217 69.1125 103.703 69.5985L105.079 70.9745C104.619 71.7065 104.257 72.5055 103.997 73.3495H102.061C101.374 73.3495 100.818 73.9065 100.818 74.5925V77.1275C100.818 77.8145 101.375 78.3705 102.061 78.3705H103.757C103.948 79.3075 104.27 80.2005 104.71 81.0255L103.552 82.1835C103.066 82.6695 103.066 83.4565 103.552 83.9415L105.345 85.7345C105.831 86.2205 106.618 86.2205 107.104 85.7345L108.111 84.7275C108.95 85.2745 109.874 85.6955 110.855 85.9685V87.3755C110.855 88.0625 111.412 88.6185 112.098 88.6185H114.633C115.32 88.6185 115.876 88.0615 115.876 87.3755V86.0625C116.892 85.8235 117.849 85.4365 118.72 84.9155L119.689 85.8845C120.175 86.3705 120.962 86.3705 121.448 85.8845L123.241 84.0915C123.727 83.6055 123.727 82.8185 123.241 82.3335L122.246 81.3385C122.739 80.4905 123.111 79.5655 123.339 78.5825H124.883C125.57 78.5825 126.126 78.0255 126.126 77.3395V74.8045C126.126 74.1205 125.57 73.5635 124.883 73.5635ZM114.827 82.5795C110.324 83.4315 106.455 79.5625 107.307 75.0595C107.783 72.5435 109.811 70.5155 112.327 70.0395C116.83 69.1875 120.699 73.0565 119.847 77.5595C119.371 80.0755 117.343 82.1045 114.827 82.5795Z" fill="white"/>
<path d="M202.932 73.8111H158.326C156.124 73.8111 154.338 72.0261 154.338 69.8231V36.6501C154.338 34.4481 156.124 32.6621 158.326 32.6621H202.932C205.135 32.6621 206.92 34.4481 206.92 36.6501V69.8231C206.92 72.0261 205.134 73.8111 202.932 73.8111Z" fill="#FF6224"/>
<path d="M171.75 60.1542C171.436 60.1542 171.122 60.0262 170.882 59.7692L165.34 53.8382C164.86 53.3252 164.86 52.4932 165.34 51.9802L170.976 45.9492C171.456 45.4362 172.233 45.4362 172.712 45.9492C173.192 46.4622 173.192 47.2942 172.712 47.8072L167.944 52.9092L172.618 57.9122C173.098 58.4252 173.098 59.2572 172.618 59.7702C172.378 60.0252 172.064 60.1542 171.75 60.1542Z" fill="white"/>
<path d="M189.506 60.1533C189.192 60.1533 188.878 60.0252 188.638 59.7682C188.158 59.2552 188.158 58.4232 188.638 57.9102L193.313 52.9073L188.544 47.8053C188.064 47.2923 188.064 46.4603 188.544 45.9473C189.023 45.4342 189.8 45.4342 190.28 45.9473L195.917 51.9783C196.147 52.2243 196.277 52.5583 196.277 52.9073C196.277 53.2563 196.148 53.5903 195.917 53.8363L190.374 59.7673C190.134 60.0243 189.82 60.1533 189.506 60.1533Z" fill="white"/>
<path d="M177.878 61.7822C177.725 61.7822 177.568 61.7511 177.416 61.6841C176.788 61.4111 176.486 60.6441 176.741 59.9721L182.242 45.5091C182.498 44.8381 183.21 44.5121 183.842 44.7871C184.47 45.0601 184.772 45.8271 184.517 46.4991L179.016 60.9621C178.822 61.4731 178.363 61.7822 177.878 61.7822Z" fill="white"/>
<path d="M243.198 81.7171H132.52V78.3202C132.52 77.4032 133.263 76.6602 134.179 76.6602H241.537C242.454 76.6602 243.197 77.4032 243.197 78.3202L243.198 81.7171Z" fill="white"/>
<path d="M240.107 140.724H135.611C133.904 140.724 132.521 139.34 132.521 137.634V81.7188H243.198V137.634C243.198 139.34 241.814 140.724 240.107 140.724Z" fill="#383873"/>
<path d="M237.884 79.1901C237.884 79.6201 237.536 79.9681 237.106 79.9681C236.676 79.9681 236.328 79.6201 236.328 79.1901C236.328 78.7601 236.676 78.4121 237.106 78.4121C237.536 78.4121 237.884 78.7601 237.884 79.1901Z" fill="#FF6224"/>
<path d="M232.536 79.1901C232.536 79.6201 232.188 79.9681 231.758 79.9681C231.328 79.9681 230.98 79.6201 230.98 79.1901C230.98 78.7601 231.328 78.4121 231.758 78.4121C232.188 78.4121 232.536 78.7601 232.536 79.1901Z" fill="#FF6224"/>
<path d="M227.187 79.1901C227.187 79.6201 226.839 79.9681 226.409 79.9681C225.979 79.9681 225.631 79.6201 225.631 79.1901C225.631 78.7601 225.979 78.4121 226.409 78.4121C226.839 78.4121 227.187 78.7601 227.187 79.1901Z" fill="#FF6224"/>
<path d="M199.716 89.6908H138.257C137.666 89.6908 137.188 89.2118 137.188 88.6208C137.188 88.0298 137.666 87.5508 138.257 87.5508H199.716C200.307 87.5508 200.786 88.0298 200.786 88.6208C200.785 89.2118 200.306 89.6908 199.716 89.6908Z" fill="#20C3C5"/>
<path d="M199.716 96.4994H138.257C137.666 96.4994 137.188 96.0204 137.188 95.4294C137.188 94.8384 137.666 94.3594 138.257 94.3594H199.716C200.307 94.3594 200.786 94.8384 200.786 95.4294C200.785 96.0204 200.306 96.4994 199.716 96.4994Z" fill="#20C3C5"/>
<path d="M170.396 103.306H138.257C137.666 103.306 137.188 102.827 137.188 102.236C137.188 101.645 137.666 101.166 138.257 101.166H170.396C170.987 101.166 171.466 101.645 171.466 102.236C171.466 102.827 170.987 103.306 170.396 103.306Z" fill="#20C3C5"/>
<path d="M199.716 116.919H138.257C137.666 116.919 137.188 116.44 137.188 115.849C137.188 115.258 137.666 114.779 138.257 114.779H199.716C200.307 114.779 200.786 115.258 200.786 115.849C200.785 116.44 200.306 116.919 199.716 116.919Z" fill="#FF6224"/>
<path d="M170.396 123.728H138.257C137.666 123.728 137.188 123.249 137.188 122.658C137.188 122.067 137.666 121.588 138.257 121.588H170.396C170.987 121.588 171.466 122.067 171.466 122.658C171.466 123.249 170.987 123.728 170.396 123.728Z" fill="#FF6224"/>
<path d="M170.396 130.535H138.257C137.666 130.535 137.188 130.056 137.188 129.465C137.188 128.874 137.666 128.395 138.257 128.395H170.396C170.987 128.395 171.466 128.874 171.466 129.465C171.466 130.056 170.987 130.535 170.396 130.535Z" fill="#20C3C5"/>
<path d="M199.717 103.306H176.621C176.03 103.306 175.551 102.827 175.551 102.236C175.551 101.645 176.03 101.166 176.621 101.166H199.717C200.308 101.166 200.787 101.645 200.787 102.236C200.786 102.827 200.307 103.306 199.717 103.306Z" fill="white"/>
<path d="M230.224 88.0199L213.893 104.351C213.475 104.769 212.798 104.769 212.38 104.351C211.962 103.933 211.962 103.256 212.38 102.838L228.711 86.5069C229.129 86.0889 229.806 86.0889 230.224 86.5069C230.642 86.9249 230.642 87.6019 230.224 88.0199Z" fill="#FF6224"/>
<path d="M230.665 121.142C231.892 115.967 228.691 110.777 223.516 109.55C218.341 108.323 213.152 111.523 211.925 116.698C210.698 121.873 213.898 127.063 219.073 128.29C224.248 129.517 229.438 126.317 230.665 121.142Z" fill="#FF6224"/>
<path d="M220.041 125.626C220.041 128.637 217.6 131.078 214.589 131.078C211.578 131.078 209.137 128.637 209.137 125.626C209.137 122.615 211.578 120.174 214.589 120.174C217.601 120.174 220.041 122.615 220.041 125.626Z" fill="#20C3C5"/>
<path d="M132.52 134.752V154.222L150.415 136.327" fill="#383873"/>
<path d="M113.473 159.486H152.735L166.933 186.812H127.671L113.473 159.486Z" fill="#86BFBC"/>
<path d="M128.464 184.792L116.708 162.166C116.461 161.692 116.806 161.125 117.34 161.125H151.306C151.572 161.125 151.816 161.273 151.938 161.509L163.694 184.135C163.941 184.609 163.596 185.176 163.062 185.176H129.096C128.831 185.176 128.587 185.028 128.464 184.792Z" fill="white"/>
<path d="M159.469 186.812H127.67V190.46H159.469V186.812Z" fill="#B8E3E2"/>
<path d="M186.789 186.812H155.41C154.403 186.812 153.586 187.628 153.586 188.636C153.586 189.643 154.403 190.46 155.41 190.46H186.789C187.796 190.46 188.613 189.644 188.613 188.636C188.613 187.629 187.796 186.812 186.789 186.812Z" fill="#9FCCC9"/>
<path d="M127.67 186.812L113.472 159.486L112.761 160.02C112.301 160.365 112.16 160.992 112.428 161.501L127.671 190.46V186.812H127.67Z" fill="#B8E3E2"/>
<path d="M141.966 188.514H138.465V189.121H141.966V188.514Z" fill="#9FCCC9"/>
<path d="M146.364 188.514H142.863V189.121H146.364V188.514Z" fill="#9FCCC9"/>
<path d="M150.765 188.514H147.264V189.121H150.765V188.514Z" fill="#9FCCC9"/>
<path d="M199.251 240.297C199.251 240.297 166.684 265.653 161.519 272.095C159.571 274.534 156.174 278.807 152.655 283.185C146.876 290.379 140.746 297.877 140.018 298.057C138.856 298.352 129.083 290.912 128.788 289.308C128.608 288.309 137.505 273.037 145.207 260.759C149.897 253.294 154.137 246.927 155.626 245.552C159.563 241.902 183.79 229.068 183.79 229.068L199.251 240.297Z" fill="#383873"/>
<path opacity="0.15" d="M137.102 292.647C137.102 292.647 167.527 249.341 182.801 242.047" stroke="black" stroke-width="0.8185" stroke-miterlimit="10" stroke-linecap="round"/>
<path d="M233.194 129.099C232.85 129.885 232.457 130.703 232.015 131.538C229.633 136.089 231.393 140.648 228.676 141.81C228.512 141.876 228.332 141.941 228.128 141.982C224.625 142.759 216.555 138.094 216.203 135.761C215.851 133.428 218.691 129.434 216.203 128.951C213.715 128.468 212.373 132.651 212.373 132.651C210.327 132.864 209.598 129.434 206.243 129.434C205.768 129.434 205.302 129.5 204.852 129.614C203.272 130.007 201.889 130.981 201.005 131.734C200.35 132.282 199.974 132.716 199.974 132.716C199.974 132.716 196.987 130.825 197.126 127.101C197.363 121.2 199.54 116.895 204.787 116.019C205.368 109.455 210.77 105.952 217.989 105.731C224.316 105.535 225.265 111.223 225.413 112.639C225.356 111.583 225.061 108.113 223.555 105.731C226.722 105.592 229.514 107.851 228.785 115.217C229.514 113.024 232.067 111.64 234.032 113.244C232.215 113.244 230.463 116.305 230.463 116.305C230.463 116.305 232.599 117.672 234.056 120.201C235.265 122.29 234.807 125.375 233.194 129.099Z" fill="#382424"/>
<path d="M228.676 141.81L228.594 142.89L228.316 146.72C228.316 146.72 222.489 151.705 219.182 146.72C219.157 146.687 219.141 146.654 219.108 146.622C218.085 145.1 217.16 144.568 216.317 144.469C214.492 144.248 213.019 146.032 211.496 144.101C207.142 138.576 205.406 132.176 204.85 129.614C205.3 129.499 205.767 129.434 206.241 129.434C209.597 129.434 210.325 132.863 212.371 132.651C212.371 132.651 213.713 128.469 216.201 128.951C218.689 129.434 215.849 133.428 216.201 135.761C216.357 136.801 218.051 138.307 220.195 139.583C222.691 141.081 225.802 142.268 227.774 142.038C227.897 142.022 228.011 142.005 228.126 141.981C228.332 141.941 228.512 141.876 228.676 141.81Z" fill="#FFAD94"/>
<path opacity="0.25" d="M229.585 148.939C226.958 150.731 222.145 151.026 222.145 151.026L218.208 150.445C218.208 150.445 216.563 148.055 217.332 146.721C217.479 146.459 217.848 146.099 218.372 145.673C219.428 144.805 221.13 143.692 222.89 142.776C224.707 141.835 226.581 141.09 227.932 141.008C231.238 140.82 232.212 147.139 229.585 148.939Z" fill="black"/>
<path d="M228.805 212.78C222.945 213.909 210.545 210.455 204.611 207.787C202.86 207.001 201.664 206.281 201.378 205.774C200.24 203.769 201.386 202.23 204.21 195.862C204.529 195.142 204.865 194.364 205.225 193.521C207.14 189.011 207.148 179.394 207.14 171.103C207.115 164.007 207.083 157.885 208.212 156.796C210.659 154.439 222.871 146.721 222.871 146.721L225.302 159.391C225.302 159.391 226.677 165.824 228.126 174.222C230.794 189.682 233.724 211.83 228.805 212.78Z" fill="#20C3C5"/>
<path d="M232.891 218.419C232.891 219 227.055 232.611 222.161 234.559C217.267 236.507 187.769 234.363 187.769 234.363L173.184 243.898L176.237 272.627L178.365 292.647L178.43 293.294C173.969 296.208 162.732 296.993 161.52 294.481C161.512 294.473 161.512 294.465 161.512 294.465C160.342 291.936 142.45 238.064 149.456 228.725C156.454 219.394 201.38 205.775 201.38 205.775C202.55 206.52 203.909 207.191 205.39 207.788C210.383 209.834 216.726 211.119 221.555 211.872C223.413 212.158 225.042 212.371 226.286 212.519C227.858 212.707 228.807 212.781 228.807 212.781C228.807 212.781 232.891 217.829 232.891 218.419Z" fill="#383873"/>
<path d="M180.278 312.061H142.35C142.162 311.39 142.415 310.71 142.988 310.023C144.527 308.173 148.382 306.315 152.098 304.711C155.626 303.189 159.014 301.879 160.152 300.979C162.828 298.859 161.592 294.734 161.519 294.48C161.928 295.323 163.475 295.799 165.521 295.938C169.54 296.224 175.474 295.225 178.428 293.293L178.363 292.646C179.492 294.807 180.024 305.488 180.205 310.022C180.253 311.275 180.278 312.061 180.278 312.061Z" fill="#0C2059"/>
<path d="M165.521 295.938C165.406 297.747 165.145 300.677 164.621 301.463C163.844 302.634 155.479 306.718 154.316 306.325C153.563 306.08 152.646 305.261 152.098 304.713C155.626 303.191 159.014 301.881 160.152 300.981C162.828 298.861 161.592 294.736 161.519 294.482C161.928 295.324 163.475 295.799 165.521 295.938Z" fill="#2E4780"/>
<path d="M180.278 312.061H142.35C142.162 311.39 142.415 310.71 142.988 310.023H180.204C180.253 311.275 180.278 312.061 180.278 312.061Z" fill="#2E4780"/>
<path d="M140.019 298.057C140.019 298.057 137.138 305.653 134.642 309.671C133.652 311.275 132.71 312.315 132.047 312.061C129.714 311.185 106.273 291.255 108.516 289.798C108.843 289.585 109.367 289.438 110.022 289.356C112.06 289.094 115.44 289.38 118.567 289.7C121.252 289.978 123.748 290.281 125.049 290.281C128.356 290.281 128.789 289.307 128.789 289.307C128.863 289.692 129.485 290.42 130.409 291.304C133.307 294.054 139.135 298.278 140.019 298.057Z" fill="#0C2059"/>
<path d="M130.41 291.305C125.442 294.595 120.261 292.614 119.238 291.861C118.485 291.313 118.485 290.289 118.567 289.7C121.252 289.978 123.748 290.281 125.049 290.281C128.356 290.281 128.789 289.307 128.789 289.307C128.863 289.693 129.485 290.421 130.41 291.305Z" fill="#2E4780"/>
<path d="M134.64 309.672C133.65 311.276 132.708 312.316 132.045 312.062C129.712 311.186 106.271 291.256 108.514 289.799C108.841 289.586 109.365 289.439 110.02 289.357L134.64 309.672Z" fill="#2E4780"/>
<path d="M204.628 187.956C202.795 190.51 199.513 194.406 196.812 194.013C196.714 193.997 196.607 193.98 196.476 193.956C191.32 193.047 160.995 185.444 159.563 185.157C158.106 184.871 147.9 184.772 148.481 183.7C149.062 182.628 154.898 179.231 156.453 179.313C158.008 179.395 164.139 181.171 170.261 180.975C176.391 180.787 192.434 180.975 192.434 180.975L193.212 179.633L194.358 177.652C194.037 183.594 201.199 188.439 204.628 187.956Z" fill="#FFAD94"/>
<path opacity="0.15" d="M204.627 210.104C204.627 210.104 203.231 217.543 208.675 220.023" stroke="black" stroke-width="0.8185" stroke-miterlimit="10" stroke-linecap="round"/>
<path opacity="0.15" d="M201.77 216.084C201.77 216.084 165.747 231.449 164.018 236.214C162.289 240.979 173.182 292.648 173.182 292.648" stroke="black" stroke-width="0.8185" stroke-miterlimit="10" stroke-linecap="round"/>
<path opacity="0.15" d="M232.891 218.42C232.891 219.001 227.055 232.612 222.161 234.56C217.267 236.508 187.769 234.364 187.769 234.364L173.184 243.899L176.237 272.628C176.237 272.628 170.074 239.815 170.074 237.671C170.074 235.838 210.818 224.125 221.556 211.873C225.763 212.536 228.808 212.782 228.808 212.782C228.808 212.782 232.891 217.83 232.891 218.42Z" fill="black"/>
<path opacity="0.25" d="M213.681 183.601C211.152 187.186 207.076 191.737 204.211 195.862C204.53 195.142 204.866 194.364 205.226 193.521C207.141 189.011 207.149 179.394 207.141 171.103L215.874 165.324C215.874 165.324 217.765 177.814 213.681 183.601Z" fill="black"/>
<path d="M206.224 186.851C205.848 187.195 205.463 187.538 205.078 187.858C204.939 187.907 204.792 187.94 204.628 187.956C201.199 188.439 194.037 183.593 194.356 177.651C194.381 177.209 194.732 176.325 195.305 175.171C198.235 169.262 207.05 156.109 208.671 156.714C208.671 156.714 214.335 157.59 215.874 165.324C217.315 172.585 212.117 181.392 206.224 186.851Z" fill="#169799"/>
<path opacity="0.25" d="M226.285 212.519C225.041 212.372 223.412 212.159 221.554 211.872C216.725 211.119 210.382 209.834 205.389 207.788C209.792 207.632 219.213 204.735 220.351 183.168C220.867 187.203 221.644 191.385 222.725 195.666C224.174 201.355 225.54 207.354 226.285 212.519Z" fill="black"/>
<path opacity="0.25" d="M223.96 141.376C223.51 141.9 223.158 142.374 222.888 142.776C221.128 143.693 219.426 144.806 218.37 145.673C217.633 144.863 216.954 144.543 216.316 144.47L220.196 139.584C221.373 140.295 222.691 140.925 223.96 141.376Z" fill="black"/>
<path opacity="0.25" d="M204.628 187.956C202.795 190.51 199.513 194.406 196.812 194.013C196.714 193.997 196.607 193.98 196.476 193.956C193.137 189.127 193.014 182.8 193.21 179.633L194.356 177.652C194.037 183.594 201.199 188.439 204.628 187.956Z" fill="black"/>
<path opacity="0.25" d="M233.194 129.098C232.85 129.884 232.457 130.702 232.015 131.537C230.844 133.771 230.681 135.998 230.484 137.839C230.091 137.536 229.69 137.258 229.289 137.02C226.76 138.526 225.057 140.089 223.961 141.374L223.953 141.382C220.384 140.105 216.448 137.372 216.202 135.759C215.85 133.426 218.69 129.432 216.202 128.949C213.714 128.466 212.372 132.649 212.372 132.649C210.326 132.862 209.597 129.432 206.242 129.432C205.767 129.432 205.301 129.498 204.851 129.612C203.271 130.005 201.888 130.979 201.004 131.732C201.004 131.732 204.785 126.42 210.719 127.492C210.719 127.492 209.851 125.839 205.857 126.035C214.222 123.31 219.566 124.382 222.145 127.394C224.248 129.859 229.184 132.904 233.194 129.098Z" fill="black"/>
<path d="M250.201 243.899H221.021C221.021 243.899 244.168 237.089 244.168 191.189C244.168 190.6 244.168 190.019 244.16 189.437C243.923 158.761 237.367 141.843 229.288 137.022C231.817 135.524 235.181 134.092 239.625 133.101C241.565 132.659 243.701 132.307 246.067 132.062C266.046 130.024 282.006 137.857 283.905 146.721C285.796 155.585 274.117 243.899 250.201 243.899Z" fill="#B8E3E2"/>
<path d="M244.169 191.188C244.169 237.088 221.022 243.898 221.022 243.898H173.182L175.171 242.482L187.768 234.363L213.051 232.612C214.41 226.973 218.109 226.784 223.749 226.195C227.031 225.859 227.35 220.318 226.352 212.993C225.624 207.722 224.216 201.526 222.726 195.666C221.646 191.385 220.868 187.203 220.352 183.168C219.738 178.445 219.468 173.936 219.444 169.688C219.37 160.014 220.549 151.747 221.793 145.772C221.908 145.191 222.03 144.634 222.153 144.102C222.153 144.086 222.161 144.061 222.161 144.045C222.276 143.791 222.775 142.76 223.954 141.385L223.962 141.377C225.059 140.092 226.761 138.529 229.29 137.023C229.691 137.26 230.092 137.539 230.485 137.842C238.007 143.571 243.933 160.293 244.162 189.439C244.169 190.018 244.169 190.599 244.169 191.188Z" fill="#86BFBC"/>
<path d="M234.936 312.061H200.494C199.315 312.061 198.8 310.571 199.733 309.843L208.351 303.099C212.173 300.103 214.408 295.512 214.408 290.658V243.898H221.021V290.658C221.021 295.512 223.255 300.103 227.086 303.099L235.696 309.843C236.63 310.571 236.114 312.061 234.936 312.061Z" fill="#B8E3E2"/>
<g opacity="0.25">
<path d="M261.205 133.824C261.205 133.824 261.456 134.467 261.868 135.755" stroke="black" stroke-width="0.8185" stroke-miterlimit="10" stroke-linecap="round"/>
<path d="M263.026 139.738C264.196 144.126 265.717 150.962 266.924 160.265C270.056 184.42 266.875 218.323 245.871 239.8" stroke="black" stroke-width="0.8185" stroke-miterlimit="10" stroke-linecap="round" stroke-dasharray="4.15 4.15"/>
<path d="M244.389 241.266C243.898 241.736 243.397 242.2 242.887 242.657" stroke="black" stroke-width="0.8185" stroke-miterlimit="10" stroke-linecap="round"/>
</g>
<path opacity="0.15" d="M221.021 243.898V256.666C218.729 257.861 216.405 258.778 214.408 259.449V243.898H221.021Z" fill="black"/>
<path opacity="0.15" d="M230.165 224.059C228.61 228.921 218.895 228.05 217.716 231.646C215.215 239.276 213.828 235.918 204.211 236.892C198.711 237.449 194.717 240.976 192.31 243.898H173.182L175.171 242.482L187.768 234.364L213.051 232.613C214.41 226.974 218.109 226.785 223.749 226.196C227.031 225.86 227.35 220.319 226.352 212.994C225.624 207.723 224.216 201.527 222.726 195.667C221.646 191.386 220.868 187.204 220.352 183.169C219.738 178.446 219.468 173.937 219.444 169.689C223.183 189.184 231.319 220.458 230.165 224.059Z" fill="black"/>
<path opacity="0.15" d="M244.168 191.19C244.168 190.601 244.168 190.02 244.16 189.438C243.923 158.762 237.367 141.844 229.288 137.023C231.817 135.525 235.181 134.093 239.625 133.102C238.291 135.025 236.9 137.915 237.554 141C238.725 146.459 251.951 167.461 246.893 201.109C243.243 225.385 244.454 238.014 248.268 243.899H221.021C221.021 243.899 244.168 237.09 244.168 191.19Z" fill="black"/>
<path opacity="0.25" d="M77.2244 166.185C77.2084 167.249 77.1095 168.256 76.9135 169.148H67.5255C64.7675 167.315 60.2655 163.689 57.5645 158.246C60.0775 160.98 64.3665 164.311 68.7365 165.326C72.5515 166.209 75.3914 165.833 77.2244 166.185Z" fill="black"/>
<path d="M99.0279 128.91C97.9799 132.716 93.1759 140.099 88.7889 148.005C83.9929 156.632 79.704 165.872 81.382 171.741C81.799 173.214 81.988 174.295 81.988 175.072C82.004 177.626 80.0649 176.832 78.1079 175.383C76.1109 173.901 74.089 171.741 74.089 171.741L74.236 160.364C74.236 160.364 67.7859 154.438 73.0819 141.473C73.4179 140.655 73.802 139.803 74.236 138.919C81.529 124.186 92.4629 108.725 82.1099 104.346C96.4089 103.472 101.222 120.946 99.0279 128.91Z" fill="#20C3C5"/>
<g opacity="0.53">
<path d="M82.1096 104.348C84.7876 104.931 87.1216 106.726 88.6016 109.016C89.0016 109.575 89.2836 110.202 89.6006 110.809C89.8396 111.449 90.1436 112.071 90.3066 112.737C90.4976 113.395 90.6846 114.055 90.7816 114.735L90.9596 115.747L91.0236 116.781C90.9666 119.549 90.0866 122.193 89.1746 124.759C88.2216 127.323 87.1216 129.827 85.9846 132.31C83.7076 137.274 81.2526 142.151 79.0866 147.147C78.0146 149.646 76.9856 152.171 76.2256 154.766C75.8376 156.06 75.5456 157.378 75.3746 158.699C75.2086 160.015 75.2206 161.369 75.6406 162.563L75.6446 162.574C75.7196 162.787 75.6076 163.021 75.3946 163.096C75.1816 163.171 74.9476 163.059 74.8726 162.846L74.8706 162.84C74.4006 161.438 74.4276 159.982 74.6136 158.606C74.8086 157.225 75.1286 155.874 75.5396 154.56C76.3486 151.926 77.4166 149.399 78.5256 146.9C80.7646 141.909 83.2796 137.064 85.6146 132.137C86.7806 129.673 87.9086 127.191 88.8876 124.652C89.8276 122.113 90.7306 119.494 90.8196 116.781L90.7706 115.772L90.6066 114.767C90.5186 114.092 90.3416 113.436 90.1616 112.781C90.0096 112.118 89.7146 111.5 89.4866 110.861C89.1806 110.256 88.9076 109.63 88.5186 109.071C87.0766 106.783 84.7796 104.965 82.1096 104.348Z" fill="black"/>
</g>
<path d="M92.4641 151.9C88.0931 163.424 92.4641 172.165 85.9001 173.41C82.8961 173.983 81.5701 171.757 81.0221 169.17C80.3671 166.109 80.8011 162.549 80.8011 162.549C80.8011 162.549 81.9141 159.701 84.2551 156.934C86.1621 154.683 88.8711 152.489 92.4641 151.9Z" fill="#169799"/>
<path d="M77.2234 166.183C77.1984 168.868 76.5935 171.143 75.3495 172.338C75.2265 172.461 75.1035 172.567 74.9895 172.657C71.8875 175.17 69.9065 170.57 69.9065 170.57C69.9065 170.57 61.6565 166.502 57.5635 158.244C54.4285 151.901 53.7334 143.078 61.1074 131.734C62.1874 139.812 66.6155 145.313 71.0025 150.535C71.0025 150.543 71.0025 150.543 71.0025 150.543C71.5505 151.198 72.0914 151.836 72.6314 152.483C75.6684 156.123 77.2644 161.722 77.2234 166.183Z" fill="#B8E3E2"/>
<g opacity="0.53">
<path d="M61.1043 131.734C60.3903 135.208 60.2183 138.788 60.5483 142.306C60.9203 145.812 61.8853 149.298 63.7893 152.267C65.6223 155.285 68.1683 157.771 70.4773 160.485C71.6263 161.846 72.7303 163.29 73.5033 164.95C74.2863 166.6 74.6433 168.477 74.4943 170.317C74.4763 170.542 74.2783 170.71 74.0533 170.692C73.8283 170.674 73.6603 170.476 73.6783 170.251C73.6783 170.249 73.6793 170.245 73.6793 170.243C73.8473 168.541 73.5573 166.817 72.8503 165.246C72.1533 163.668 71.1123 162.242 70.0043 160.877C67.7783 158.153 65.2453 155.585 63.4393 152.48C61.5583 149.418 60.6493 145.858 60.3443 142.326C60.0813 138.778 60.3233 135.195 61.1043 131.734Z" fill="black"/>
</g>
<g opacity="0.25">
<path d="M92.4669 151.9C91.2139 153.35 90.0479 154.873 88.9329 156.428C87.8269 157.989 86.7669 159.584 85.8179 161.241C83.9249 164.539 82.3149 168.077 81.7859 171.796L81.7839 171.81C81.7519 172.034 81.5449 172.19 81.3209 172.158C81.0969 172.126 80.9409 171.919 80.9729 171.695C80.9739 171.691 80.9749 171.685 80.9749 171.68C81.6719 167.797 83.4439 164.29 85.4669 161.03C86.4819 159.395 87.6039 157.832 88.7679 156.306C89.9409 154.787 91.1629 153.305 92.4669 151.9Z" fill="black"/>
</g>
<path d="M89.8119 172.028L87.0129 189.216C86.8739 189.936 86.2439 190.46 85.5069 190.46H68.0649C67.3279 190.46 66.6979 189.936 66.5589 189.216L64.2839 175.261L63.7599 172.028C63.5879 171.087 64.3079 170.219 65.2659 170.219H88.3059C89.2639 170.22 89.9839 171.087 89.8119 172.028Z" fill="#B8E3E2"/>
<path d="M92.4634 175.53H61.1074L61.9344 170.848C62.1144 169.866 62.9654 169.146 63.9644 169.146H89.6154C90.6054 169.146 91.4654 169.866 91.6374 170.848L92.4634 175.53Z" fill="#86BFBC"/>
<path opacity="0.25" d="M80.8 162.549C80.8 162.549 80.366 166.093 81.013 169.146H76.912C77.108 168.254 77.2069 167.247 77.2229 166.183C77.2639 161.722 75.668 156.124 72.631 152.482C72.091 151.835 71.551 151.197 71.002 150.542C71.002 150.542 71.002 150.542 71.002 150.534C71.068 148.021 71.6399 145.009 73.0809 141.473C73.3179 145.606 74.3329 152.793 78.4579 153.554C81.5929 154.127 85.677 151.017 88.787 148.005C87.142 150.96 85.5619 153.988 84.2529 156.935C81.9129 159.701 80.8 162.549 80.8 162.549Z" fill="black"/>
<path opacity="0.25" d="M78.4752 190.46H68.0642C67.3272 190.46 66.6972 189.936 66.5582 189.216L64.3242 175.531H73.3192C73.0982 177.446 72.8282 181.023 73.5072 183.798C74.0392 185.999 75.9712 188.831 78.4752 190.46Z" fill="black"/>
<path d="M157.35 48.8844H112.744C110.542 48.8844 108.756 47.0984 108.756 44.8964V11.7224C108.756 9.52037 110.542 7.73438 112.744 7.73438H157.35C159.553 7.73438 161.338 9.52037 161.338 11.7224V44.8964C161.338 47.0984 159.553 48.8844 157.35 48.8844Z" fill="#383873"/>
<path d="M120.999 22.2904V26.7194C120.999 27.0744 121.287 27.3614 121.641 27.3614H124.093C124.448 27.3614 124.735 27.0734 124.735 26.7194V22.2904C124.735 21.9354 125.023 21.6484 125.377 21.6484H125.614C125.969 21.6484 126.256 21.9364 126.256 22.2904V34.3304C126.256 34.6854 125.968 34.9724 125.614 34.9724H125.377C125.022 34.9724 124.735 34.6844 124.735 34.3304V29.3874C124.735 29.0324 124.447 28.7454 124.093 28.7454H121.641C121.286 28.7454 120.999 29.0334 120.999 29.3874V34.3304C120.999 34.6854 120.711 34.9724 120.357 34.9724H120.119C119.764 34.9724 119.477 34.6844 119.477 34.3304V22.2904C119.477 21.9354 119.765 21.6484 120.119 21.6484H120.357C120.711 21.6484 120.999 21.9354 120.999 22.2904Z" fill="white"/>
<path d="M129.545 23.0124H128.398C128.043 23.0124 127.756 22.7244 127.756 22.3704V22.2904C127.756 21.9354 128.044 21.6484 128.398 21.6484H133.498C133.853 21.6484 134.14 21.9364 134.14 22.2904V22.3704C134.14 22.7254 133.852 23.0124 133.498 23.0124H132.351C131.996 23.0124 131.709 23.3004 131.709 23.6544V34.3304C131.709 34.6854 131.421 34.9724 131.067 34.9724H130.829C130.474 34.9724 130.187 34.6844 130.187 34.3304V23.6544C130.187 23.3004 129.9 23.0124 129.545 23.0124Z" fill="white"/>
<path d="M143.609 29.2385C143.51 27.4785 143.411 25.5215 143.471 24.0195H143.392C143.095 25.5015 142.739 27.0835 142.324 28.6455L140.683 34.8925H139.714L138.152 28.9025C137.717 27.2025 137.322 25.5615 137.065 24.0195H137.006C137.006 25.5815 136.926 27.4395 136.848 29.3375L136.619 34.3585C136.603 34.7015 136.321 34.9715 135.977 34.9715H135.908C135.538 34.9715 135.245 34.6605 135.267 34.2915L135.981 22.2515C136.001 21.9125 136.282 21.6475 136.622 21.6475H137.159C137.452 21.6475 137.708 21.8465 137.781 22.1305L139.22 27.7365C139.674 29.4965 140.011 30.8005 140.287 32.3235H140.346C140.603 30.8005 140.9 29.5355 141.335 27.7365L142.717 22.1355C142.788 21.8485 143.045 21.6465 143.341 21.6465H143.931C144.271 21.6465 144.553 21.9125 144.572 22.2515L145.268 34.2915C145.289 34.6605 144.996 34.9705 144.627 34.9705H144.496C144.153 34.9705 143.871 34.7015 143.854 34.3595L143.609 29.2385Z" fill="white"/>
<path d="M148.023 21.6484H148.261C148.616 21.6484 148.903 21.9364 148.903 22.2904V33.0454C148.903 33.4004 149.191 33.6874 149.545 33.6874H152.016C152.371 33.6874 152.658 33.9754 152.658 34.3294C152.658 34.6844 152.37 34.9714 152.016 34.9714H148.023C147.668 34.9714 147.381 34.6834 147.381 34.3294V22.2894C147.38 21.9354 147.668 21.6484 148.023 21.6484Z" fill="white"/>
<path d="M177.684 11.26C179.353 11.26 179.747 10.137 179.747 9.13596C179.747 8.25596 179.656 7.40595 179.565 6.55695C179.474 5.64695 179.383 4.82696 179.383 3.88596C179.383 1.15496 181.052 0.00195312 183.207 0.00195312H183.571V1.57996H183.116C181.841 1.57996 181.325 2.49096 181.325 3.85596C181.325 4.67596 181.417 5.43396 181.507 6.16296C181.568 6.95196 181.658 7.67995 181.658 8.40895C181.688 10.776 180.869 11.595 179.564 11.96V12.021C180.869 12.416 181.688 13.235 181.658 15.632C181.658 16.391 181.567 17.149 181.507 17.908C181.416 18.667 181.325 19.426 181.325 20.245C181.325 21.611 181.78 22.551 183.146 22.551H183.571V24.129H183.176C181.173 24.129 179.383 23.128 179.383 20.245C179.383 19.335 179.475 18.424 179.565 17.544C179.656 16.664 179.747 15.784 179.747 14.934C179.747 13.963 179.352 12.779 177.684 12.779V11.26Z" fill="#383873"/>
<path d="M208.621 12.777C206.952 12.777 206.558 13.961 206.558 14.932C206.558 15.782 206.649 16.662 206.74 17.542C206.831 18.422 206.922 19.332 206.922 20.243C206.922 23.126 205.131 24.127 203.129 24.127H202.734V22.549H203.159C204.525 22.397 204.98 21.608 204.98 20.243C204.98 19.424 204.889 18.665 204.828 17.906C204.737 17.147 204.646 16.389 204.646 15.63C204.616 13.233 205.435 12.413 206.74 12.019V11.958C205.435 11.594 204.616 10.775 204.646 8.407C204.646 7.679 204.737 6.95 204.828 6.161C204.889 5.433 204.98 4.674 204.98 3.854C204.98 2.489 204.463 1.73 203.189 1.578H202.734V0H203.098C205.252 0 206.922 1.153 206.922 3.884C206.922 4.824 206.831 5.644 206.74 6.555C206.649 7.405 206.558 8.254 206.558 9.134C206.558 10.135 206.953 11.258 208.621 11.258V12.777Z" fill="#383873"/>
<path d="M198.207 14.9836V9.14556L193.151 6.22656L188.096 9.14556V14.9836L193.151 17.9016L198.207 14.9836Z" fill="#FF6224"/>
<path d="M236.243 44.0686C231.492 41.7026 225.776 42.6366 222.02 46.3926C217.384 51.0286 217.23 58.4596 221.53 63.2986L219.677 63.0786C219.453 63.0516 219.249 63.2116 219.222 63.4366C219.195 63.6616 219.356 63.8646 219.58 63.8916L222.403 64.2266C222.515 64.2406 222.622 64.2066 222.705 64.1416C222.787 64.0766 222.845 63.9806 222.858 63.8686L223.183 61.1376C223.21 60.9126 223.05 60.7096 222.825 60.6826C222.6 60.6556 222.397 60.8166 222.37 61.0406L222.163 62.7796C218.125 58.2626 218.262 51.3076 222.598 46.9706C226.104 43.4646 231.441 42.5916 235.877 44.7996C236.079 44.9016 236.325 44.8176 236.426 44.6156C236.528 44.4146 236.445 44.1696 236.243 44.0686Z" fill="#FF6224"/>
<path d="M225.619 66.7184C230.37 69.0844 236.086 68.1504 239.842 64.3944C244.478 59.7584 244.633 52.3274 240.332 47.4884L242.185 47.7084C242.41 47.7354 242.613 47.5744 242.64 47.3504C242.667 47.1254 242.506 46.9224 242.282 46.8954L239.459 46.5594C239.347 46.5464 239.24 46.5794 239.158 46.6444C239.076 46.7094 239.018 46.8054 239.005 46.9174L238.68 49.6484C238.653 49.8724 238.813 50.0764 239.038 50.1034C239.263 50.1304 239.466 49.9704 239.493 49.7454L239.7 48.0064C243.738 52.5244 243.601 59.4784 239.265 63.8154C235.759 67.3214 230.422 68.1944 225.986 65.9864C225.784 65.8844 225.538 65.9684 225.437 66.1704C225.334 66.3724 225.417 66.6174 225.619 66.7184Z" fill="#FF6224"/>
<path d="M335.081 89.6908H261.008C259.658 89.6908 258.562 88.5958 258.562 87.2458C258.562 85.8958 259.657 84.8008 261.008 84.8008H335.081C336.431 84.8008 337.525 85.8948 337.525 87.2458C337.524 88.5968 336.431 89.6908 335.081 89.6908Z" fill="#FF6224"/>
<path d="M308.629 100.318H261.006C259.656 100.318 258.561 99.2227 258.561 97.8727C258.561 96.5227 259.655 95.4277 261.006 95.4277H308.629C309.979 95.4277 311.074 96.5217 311.074 97.8727C311.074 99.2237 309.979 100.318 308.629 100.318Z" fill="#20C3C5"/>
<path d="M308.629 111.728H261.006C259.656 111.728 258.561 110.634 258.561 109.283C258.561 107.933 259.655 106.838 261.006 106.838H308.629C309.979 106.838 311.074 107.932 311.074 109.283C311.074 110.633 309.979 111.728 308.629 111.728Z" fill="#20C3C5"/>
<path d="M72.4357 49.0716H33.9587C32.6087 49.0716 31.5137 47.9766 31.5137 46.6266C31.5137 45.2766 32.6077 44.1816 33.9587 44.1816H72.4357C73.7857 44.1816 74.8807 45.2756 74.8807 46.6266C74.8797 47.9776 73.7857 49.0716 72.4357 49.0716Z" fill="#20C3C5"/>
<path d="M57.9087 59.6986H33.9587C32.6087 59.6986 31.5137 58.6036 31.5137 57.2536C31.5137 55.9036 32.6077 54.8086 33.9587 54.8086H57.9087C59.2587 54.8086 60.3537 55.9026 60.3537 57.2536C60.3537 58.6046 59.2587 59.6986 57.9087 59.6986Z" fill="#FF6224"/>
<path d="M57.9087 71.1087H33.9587C32.6087 71.1087 31.5137 70.0137 31.5137 68.6637C31.5137 67.3137 32.6077 66.2188 33.9587 66.2188H57.9087C59.2587 66.2188 60.3537 67.3127 60.3537 68.6637C60.3537 70.0137 59.2587 71.1087 57.9087 71.1087Z" fill="#FF6224"/>
<path d="M301.709 226.293C299.311 233.25 296.446 239.323 293.45 244.807C283.096 263.722 271.073 275.754 270.623 293.392C270.623 293.392 266.891 276.777 269.886 257.845C271.564 247.213 275.362 235.852 283.129 226.293C304.745 199.709 301.545 175.531 301.545 175.531C301.545 175.531 312.382 195.362 301.709 226.293Z" fill="#169799"/>
<g opacity="0.25">
<path d="M276.241 272.702C275.924 270.497 276.01 268.351 276.212 266.196C276.425 264.049 276.811 261.921 277.363 259.841C278.435 255.67 280.028 251.651 281.963 247.821C282.895 245.885 284.008 244.047 285.096 242.2L288.576 236.826C290.794 233.213 292.665 229.381 294.24 225.43C295.828 221.484 297.165 217.434 298.287 213.325C299.42 209.219 300.347 205.054 301.077 200.855C301.81 196.657 302.346 192.421 302.611 188.166C302.738 186.039 302.797 183.905 302.705 181.775C302.652 180.711 302.585 179.645 302.412 178.593C302.237 177.547 302.042 176.481 301.545 175.529C302.058 176.473 302.272 177.539 302.464 178.584C302.655 179.636 302.739 180.703 302.81 181.769C302.937 183.902 302.913 186.042 302.821 188.176C302.635 192.446 302.131 196.698 301.445 200.916C300.759 205.135 299.875 209.322 298.782 213.457C297.7 217.594 296.402 221.679 294.846 225.669C293.303 229.663 291.459 233.551 289.251 237.238L285.802 242.631C284.731 244.462 283.633 246.283 282.719 248.198C280.817 251.987 279.258 255.954 278.215 260.055C277.681 262.101 277.306 264.187 277.074 266.283C276.856 268.367 276.769 270.522 277.045 272.549L277.05 272.587C277.08 272.811 276.924 273.017 276.7 273.047C276.478 273.079 276.273 272.924 276.241 272.702Z" fill="black"/>
</g>
<path opacity="0.25" d="M293.45 244.807C283.096 263.722 271.073 275.754 270.623 293.392C270.623 293.392 266.891 276.777 269.886 257.845C276.597 255.103 286.034 250.634 293.45 244.807Z" fill="black"/>
<path d="M276.625 312.063C276.625 312.063 269.064 299.136 286.957 283.184C304.85 267.232 318.853 246.135 316.13 229.066C299.015 248.95 253.504 277.146 266.341 312.06L276.625 312.063Z" fill="#20C3C5"/>
<g opacity="0.25">
<path d="M316.131 229.066C314.423 232.833 312.134 236.309 309.67 239.624C307.179 242.925 304.441 246.037 301.524 248.971C298.635 251.935 295.443 254.589 292.28 257.239C289.136 259.903 286.287 262.912 283.747 266.153C278.67 272.635 274.7 280.015 272.308 287.885C271.14 291.821 270.337 295.885 270.224 299.981C270.104 304.059 270.626 308.209 272.259 311.935C272.35 312.142 272.257 312.383 272.05 312.475C271.843 312.566 271.602 312.473 271.51 312.266L271.508 312.262C269.843 308.374 269.352 304.112 269.508 299.957C269.658 295.784 270.508 291.675 271.72 287.706C274.203 279.773 278.264 272.379 283.425 265.899C286.008 262.659 288.898 259.657 292.081 257.004C295.273 254.374 298.468 251.763 301.378 248.826C304.312 245.923 307.071 242.839 309.586 239.562C312.077 236.272 314.392 232.818 316.131 229.066Z" fill="black"/>
</g>
<path d="M19.8243 218.418C19.8243 218.418 10.4883 209.91 5.5293 188.637C34.1193 212.875 41.1213 234.462 41.1213 234.462L19.8243 218.418Z" fill="#169799"/>
<g opacity="0.25">
<path d="M5.5293 188.637C9.5063 194.328 13.3963 200.081 17.1813 205.905C19.0723 208.818 20.9243 211.757 22.7233 214.732C24.5123 217.713 26.2633 220.72 27.7163 223.92C27.8093 224.126 27.7193 224.368 27.5133 224.462C27.3073 224.555 27.0653 224.464 26.9713 224.259C26.9703 224.257 26.9693 224.254 26.9693 224.254L26.9633 224.24C25.6063 221.089 23.9183 218.046 22.1943 215.044C20.4593 212.043 18.6683 209.071 16.8363 206.125C13.1683 200.232 9.3933 194.405 5.5293 188.637Z" fill="black"/>
</g>
<path d="M40.5402 230.378C35.4002 225.745 27.7882 221.154 20.5452 216.21C10.9122 209.638 1.93321 202.419 0.271209 193.604C-3.50979 225.418 33.4932 239.742 33.4932 239.742L33.5672 239.848L47.0062 259.451C47.0062 259.451 52.4982 241.174 40.5402 230.378Z" fill="#20C3C5"/>
<g opacity="0.25">
<path d="M0.271575 193.604C0.294575 197.15 1.32457 200.619 2.81657 203.805C4.37257 206.974 6.48458 209.858 9.00058 212.326C11.5146 214.804 14.4156 216.841 17.3776 218.763C20.3376 220.692 23.3466 222.554 26.2736 224.549C32.1086 228.514 37.7026 233.142 41.6146 239.148C45.5846 245.107 47.4166 252.333 47.4166 259.451C47.4176 259.677 47.2356 259.861 47.0096 259.862C46.7836 259.863 46.5996 259.681 46.5986 259.455V259.449C46.6626 252.455 44.9426 245.377 41.0996 239.48C37.3126 233.539 31.8216 228.893 26.0426 224.885C23.1446 222.868 20.1556 220.979 17.2096 219.018C14.2626 217.066 11.3636 214.989 8.85757 212.47C6.35057 209.963 4.25558 207.043 2.72558 203.848C1.25658 200.637 0.260575 197.15 0.271575 193.604Z" fill="black"/>
</g>
<path d="M303.975 326.26H55.3646C51.4436 326.26 48.2656 323.082 48.2656 319.161C48.2656 315.24 51.4446 312.062 55.3646 312.062H303.975C307.896 312.062 311.075 315.24 311.075 319.161C311.075 323.081 307.896 326.26 303.975 326.26Z" fill="#EAF9F8"/>
</svg>
