<svg width="500" height="500" viewBox="0 0 500 500" fill="none" xmlns="http://www.w3.org/2000/svg">
<path d="M201.634 73.0924C236.637 31.8584 293.689 49.8344 298.391 51.4054C308.931 54.9254 342.889 66.2684 355.276 99.8824C362.693 120.008 356.328 131.704 356.339 160.478C356.365 226.379 389.779 245.297 383.984 277.205C374.539 329.211 266.557 384.764 204.824 330.147C144.108 276.43 172.207 155.144 179.837 122.207C184.881 100.435 191.173 85.4154 201.634 73.0924Z" fill="#3F3B63"/>
<mask id="mask0_284_820" style="mask-type:luminance" maskUnits="userSpaceOnUse" x="166" y="46" width="219" height="307">
<path d="M201.632 73.0924C236.635 31.8584 293.687 49.8344 298.389 51.4054C308.929 54.9254 342.887 66.2684 355.274 99.8824C362.691 120.008 356.326 131.704 356.337 160.478C356.363 226.379 389.777 245.297 383.982 277.205C374.537 329.211 266.555 384.764 204.822 330.147C144.106 276.43 172.205 155.144 179.835 122.207C184.879 100.435 191.171 85.4154 201.632 73.0924Z" fill="white"/>
</mask>
<g mask="url(#mask0_284_820)">
<path d="M370.126 363.459L370.186 359.083L370.323 349.007L293.776 327.303V300.828C296.203 299.953 298.459 299.074 300.529 298.263C317.021 291.805 331.243 286.236 338.472 272.299C342.124 265.258 343.756 256.524 343.357 248.08C344.548 241.806 344.573 235.149 343.418 228.971C343.499 228.482 343.565 227.964 343.617 227.407C343.633 227.229 343.648 227.048 343.662 226.862C343.796 225.007 343.785 222.751 343.65 219.864C343.596 218.709 343.523 217.453 343.431 216.081C343.111 211.279 342.568 205.058 341.868 196.782C341.818 196.191 341.767 195.589 341.716 194.977C341.613 193.752 341.506 192.485 341.397 191.173C341.288 189.861 341.176 188.504 341.061 187.1C340.831 184.293 340.59 181.3 340.34 178.106C340.277 177.308 340.214 176.496 340.15 175.673C339.831 171.554 339.498 167.115 339.153 162.327C338.737 156.544 338.403 151.63 338.1 147.416C338.049 146.714 338 146.031 337.951 145.367C337.808 143.43 337.669 141.656 337.53 140.018C337.426 138.79 337.321 137.641 337.213 136.563C337.07 135.134 336.922 133.824 336.762 132.624C336.707 132.209 336.65 131.807 336.592 131.417C335.663 125.171 334.329 121.922 331.595 118.489C327.833 113.765 322.856 110.491 317.264 108.284C316.705 108.063 316.139 107.853 315.569 107.653C314.427 107.253 313.263 106.895 312.082 106.575C309.719 105.934 307.287 105.446 304.824 105.085C303.908 104.951 302.987 104.84 302.064 104.74C302.077 104.589 302.088 104.437 302.1 104.286C302.122 104.001 302.141 103.716 302.158 103.429C302.169 103.237 302.18 103.046 302.189 102.853C302.202 102.56 302.212 102.267 302.22 101.973C302.225 101.787 302.231 101.602 302.234 101.417C302.239 101.107 302.24 100.797 302.241 100.488C302.241 100.321 302.243 100.154 302.241 99.9866C302.238 99.6386 302.231 99.2936 302.222 98.9496C302.219 98.8226 302.218 98.6946 302.214 98.5676C302.185 97.6206 302.137 96.6896 302.074 95.7866C302.065 95.6596 302.055 95.5366 302.045 95.4116C302.021 95.0936 301.997 94.7766 301.971 94.4666C301.957 94.3046 301.942 94.1476 301.927 93.9876C301.903 93.7206 301.878 93.4556 301.852 93.1966C301.835 93.0276 301.817 92.8646 301.8 92.6996C301.774 92.4586 301.748 92.2206 301.722 91.9876C301.703 91.8246 301.684 91.6666 301.665 91.5076C301.638 91.2836 301.611 91.0656 301.584 90.8516C301.564 90.6986 301.545 90.5496 301.525 90.4016C301.497 90.1926 301.47 89.9916 301.442 89.7946C301.423 89.6556 301.403 89.5186 301.384 89.3856C301.357 89.1966 301.33 89.0186 301.303 88.8416C301.284 88.7156 301.265 88.5886 301.247 88.4686C301.221 88.2976 301.196 88.1416 301.17 87.9846C301.153 87.8776 301.135 87.7656 301.119 87.6656C301.094 87.5136 301.071 87.3786 301.047 87.2416C301.032 87.1556 301.017 87.0616 301.003 86.9816C300.969 86.7846 300.937 86.6076 300.909 86.4516C300.92 81.8486 297.705 80.5946 296.502 80.2896L296.499 80.2886C296.411 80.2666 296.336 80.2486 296.272 80.2356C296.263 80.2336 296.256 80.2326 296.248 80.2306C296.191 80.2196 296.145 80.2106 296.113 80.2056C296.108 80.2046 296.106 80.2046 296.102 80.2036C296.071 80.1986 296.052 80.1966 296.052 80.1966C295.609 79.9006 295.171 79.6166 294.739 79.3426C294.589 79.2476 294.443 79.1606 294.294 79.0676C294.014 78.8936 293.734 78.7186 293.459 78.5536C293.285 78.4496 293.115 78.3526 292.942 78.2526C292.697 78.1096 292.452 77.9646 292.211 77.8286C292.031 77.7276 291.855 77.6326 291.677 77.5356C291.448 77.4106 291.219 77.2836 290.994 77.1646C290.815 77.0706 290.64 76.9826 290.463 76.8916C290.244 76.7796 290.025 76.6676 289.81 76.5616C289.632 76.4746 289.457 76.3926 289.281 76.3086C289.072 76.2096 288.863 76.1106 288.658 76.0176C288.481 75.9376 288.306 75.8616 288.131 75.7856C287.933 75.6996 287.734 75.6126 287.539 75.5316C287.363 75.4586 287.19 75.3896 287.017 75.3216C286.826 75.2456 286.636 75.1716 286.449 75.1006C286.276 75.0356 286.106 74.9746 285.936 74.9136C285.753 74.8486 285.571 74.7846 285.39 74.7236C285.22 74.6666 285.052 74.6126 284.885 74.5596C284.71 74.5046 284.536 74.4506 284.364 74.3996C284.195 74.3496 284.028 74.3026 283.861 74.2566C283.695 74.2106 283.53 74.1676 283.366 74.1256C283.2 74.0836 283.035 74.0426 282.871 74.0046C282.712 73.9676 282.555 73.9336 282.399 73.9006C282.235 73.8656 282.071 73.8316 281.909 73.8016C281.759 73.7736 281.61 73.7476 281.462 73.7226C281.299 73.6956 281.137 73.6686 280.978 73.6456C280.836 73.6246 280.696 73.6076 280.556 73.5906C280.394 73.5706 280.232 73.5506 280.073 73.5346C279.942 73.5216 279.812 73.5116 279.683 73.5016C279.52 73.4886 279.357 73.4756 279.196 73.4666C279.077 73.4606 278.96 73.4576 278.842 73.4536C278.676 73.4476 278.51 73.4426 278.347 73.4416C278.243 73.4406 278.141 73.4436 278.038 73.4456C277.866 73.4476 277.694 73.4496 277.525 73.4566C277.442 73.4606 277.361 73.4666 277.278 73.4716C277.094 73.4826 276.909 73.4926 276.729 73.5096C276.681 73.5146 276.634 73.5206 276.586 73.5256C274.869 73.7006 273.344 74.1436 271.99 74.7766C271.986 74.7786 271.983 74.7796 271.979 74.7816C271.788 74.8706 271.601 74.9646 271.416 75.0616C271.407 75.0666 271.399 75.0706 271.39 75.0746C271.209 75.1706 271.031 75.2696 270.856 75.3726C270.846 75.3786 270.835 75.3846 270.825 75.3906C270.651 75.4936 270.48 75.5996 270.312 75.7076C270.302 75.7136 270.292 75.7196 270.283 75.7266C270.115 75.8366 269.95 75.9486 269.788 76.0646C269.78 76.0706 269.771 76.0766 269.763 76.0826C269.6 76.1996 269.44 76.3186 269.284 76.4406C269.278 76.4456 269.272 76.4506 269.265 76.4546C269.105 76.5796 268.949 76.7066 268.796 76.8366L268.794 76.8386C263.306 81.4916 261.907 89.2756 261.907 89.2756C262.918 89.8276 263.978 90.3046 265.067 90.7236C262.724 97.9886 263.367 106.851 264.574 112.808C262.373 115.758 260.975 119.342 260.724 123.232C260.467 127.222 260.181 131.11 259.875 134.907C256.816 136.923 255.122 139.237 254.419 140.9L252.919 150.743C251.332 161.154 252.028 179.575 252.804 192.268C252.189 195.925 251.574 199.396 250.972 202.643C249.566 210.217 248.315 216.234 247.925 221.382C222.056 235.27 201.436 254.03 203.324 267.442C203.471 268.484 203.764 269.498 204.172 270.488C202.7 273.73 202.07 276.83 202.472 279.685C204.651 295.168 237.019 304.919 256.815 306.439C264.166 307.003 270.82 306.507 276.813 305.464V326.945L199.213 346.683L199.076 356.759L199.016 361.135C196.285 362.488 194.387 365.279 194.343 368.536C194.28 373.168 197.984 376.974 202.616 377.037C203.433 377.048 204.222 376.936 204.972 376.729C205.394 376.612 205.8 376.46 206.193 376.282C206.224 376.268 206.255 376.253 206.286 376.239C207.062 375.874 207.773 375.397 208.398 374.824C208.419 374.805 208.441 374.787 208.461 374.768C208.758 374.49 209.032 374.19 209.286 373.871C209.322 373.826 209.356 373.78 209.391 373.734C209.639 373.409 209.87 373.071 210.069 372.711C210.073 372.703 210.076 372.695 210.081 372.688C210.272 372.34 210.433 371.974 210.575 371.598C210.599 371.535 210.625 371.473 210.647 371.409C210.777 371.036 210.88 370.652 210.956 370.257C210.971 370.18 210.982 370.102 210.995 370.024C211.063 369.613 211.111 369.194 211.117 368.765C211.121 368.498 211.109 368.234 211.088 367.973C211.081 367.888 211.069 367.806 211.06 367.722C211.04 367.546 211.018 367.371 210.987 367.198C210.97 367.102 210.951 367.008 210.931 366.914C210.897 366.754 210.859 366.596 210.816 366.44C210.79 366.346 210.765 366.252 210.737 366.16C210.687 365.999 210.63 365.842 210.57 365.685C210.539 365.604 210.512 365.522 210.479 365.442C210.387 365.22 210.286 365.002 210.176 364.79C210.132 364.705 210.081 364.625 210.034 364.541C209.96 364.411 209.887 364.281 209.807 364.156C209.741 364.053 209.671 363.953 209.6 363.853C209.531 363.755 209.461 363.657 209.388 363.562C209.307 363.457 209.225 363.354 209.14 363.253C209.071 363.172 209 363.093 208.928 363.014C208.833 362.909 208.737 362.805 208.637 362.705C208.577 362.646 208.514 362.59 208.453 362.533C208.399 362.482 208.345 362.43 208.29 362.381L208.399 354.39L280.882 335.954L279.442 366.174L279.393 369.804C278.778 370.607 278.394 371.596 278.379 372.685L278.269 380.788C278.232 383.475 280.381 385.684 283.069 385.72L285.862 385.758C288.549 385.795 290.758 383.646 290.794 380.958L290.904 372.855C290.919 371.766 290.562 370.766 289.969 369.947L290.018 366.317L289.456 336.2L360.93 356.465L360.821 364.456C360.726 364.536 360.633 364.619 360.541 364.704C360.521 364.723 360.499 364.74 360.479 364.759C360.182 365.037 359.907 365.338 359.653 365.657C359.617 365.702 359.584 365.747 359.549 365.792C359.301 366.117 359.07 366.456 358.87 366.816C358.866 366.824 358.862 366.832 358.858 366.84C358.667 367.188 358.506 367.553 358.365 367.929C358.341 367.992 358.315 368.054 358.293 368.118C358.163 368.491 358.06 368.875 357.984 369.27C357.969 369.347 357.958 369.425 357.945 369.503C357.877 369.914 357.829 370.333 357.823 370.762C357.819 371.029 357.831 371.293 357.852 371.554C357.859 371.639 357.871 371.721 357.88 371.805C357.9 371.981 357.922 372.156 357.953 372.328C357.97 372.424 357.989 372.519 358.009 372.613C358.043 372.773 358.081 372.93 358.124 373.087C358.15 373.181 358.175 373.275 358.204 373.368C358.254 373.528 358.311 373.685 358.37 373.841C358.401 373.922 358.428 374.005 358.461 374.085C358.553 374.307 358.654 374.525 358.764 374.737C358.807 374.82 358.857 374.899 358.903 374.98C358.977 375.112 359.052 375.243 359.133 375.371C359.198 375.473 359.268 375.572 359.338 375.671C359.407 375.77 359.477 375.868 359.551 375.964C359.631 376.069 359.714 376.171 359.799 376.272C359.868 376.354 359.939 376.433 360.011 376.512C360.106 376.616 360.201 376.721 360.302 376.82C360.362 376.879 360.425 376.935 360.486 376.992C360.886 377.366 361.322 377.701 361.79 377.992C361.843 378.025 361.895 378.059 361.948 378.091C362.094 378.178 362.244 378.258 362.396 378.335C362.458 378.367 362.52 378.398 362.582 378.428C362.737 378.503 362.894 378.573 363.054 378.638C363.111 378.661 363.17 378.682 363.228 378.704C363.399 378.769 363.571 378.833 363.748 378.887H363.749C364.493 379.115 365.278 379.248 366.095 379.259C370.727 379.322 374.533 375.618 374.596 370.986C374.64 367.727 372.819 364.885 370.126 363.459Z" fill="#322F4F"/>
</g>
<path d="M270.652 337.604L184.57 359.5L184.707 349.423L270.789 327.529L270.652 337.604Z" fill="#4F4F4F"/>
<path d="M193.774 366.04L184.455 368.041L184.708 349.424L194.027 347.424L193.774 366.04Z" fill="#666666"/>
<path d="M184.707 349.423L190.859 352.604L270.713 333.117L270.789 327.529L184.707 349.423Z" fill="#666666"/>
<path d="M193.966 351.846L190.859 352.604L190.656 367.516L193.773 366.039L193.966 351.846Z" fill="#4F4F4F"/>
<path d="M196.613 371.504C196.55 376.136 192.744 379.84 188.112 379.777C183.48 379.714 179.776 375.908 179.839 371.276C179.902 366.644 183.708 362.94 188.34 363.003C192.972 363.066 196.676 366.872 196.613 371.504Z" fill="#666666"/>
<path d="M196.613 371.504C196.55 376.136 192.744 379.84 188.112 379.777C183.48 379.714 179.776 375.908 179.839 371.276C179.902 366.644 183.708 362.94 188.34 363.003C192.972 363.066 196.676 366.872 196.613 371.504Z" fill="#666666"/>
<path d="M190.686 363.375C187.186 364.345 184.592 367.525 184.54 371.34C184.488 375.155 186.994 378.405 190.467 379.469C193.967 378.499 196.561 375.319 196.613 371.504C196.664 367.689 194.158 364.44 190.686 363.375Z" fill="#4F4F4F"/>
<path d="M270.227 337.599L355.682 361.828L355.819 351.752L270.364 327.523L270.227 337.599Z" fill="#4F4F4F"/>
<path d="M346.303 368.116L355.565 370.369L355.818 351.753L346.557 349.5L346.303 368.116Z" fill="#666666"/>
<path d="M355.818 351.752L349.582 354.764L270.287 333.111L270.363 327.523L355.818 351.752Z" fill="#666666"/>
<path d="M346.497 353.922L349.582 354.764L349.38 369.676L346.303 368.115L346.497 353.922Z" fill="#4F4F4F"/>
<path d="M343.317 373.5C343.254 378.132 346.958 381.938 351.59 382.001C356.222 382.064 360.028 378.36 360.091 373.728C360.154 369.096 356.45 365.29 351.818 365.227C347.186 365.164 343.38 368.868 343.317 373.5Z" fill="#666666"/>
<path d="M343.317 373.5C343.254 378.132 346.958 381.938 351.59 382.001C356.222 382.064 360.028 378.36 360.091 373.728C360.154 369.096 356.45 365.29 351.818 365.227C347.186 365.164 343.38 368.868 343.317 373.5Z" fill="#666666"/>
<path d="M349.463 365.535C352.936 366.6 355.442 369.849 355.39 373.664C355.338 377.479 352.745 380.659 349.244 381.629C345.771 380.564 343.265 377.315 343.317 373.5C343.369 369.685 345.963 366.505 349.463 365.535Z" fill="#4F4F4F"/>
<path d="M264.938 368.913L275.514 369.057L274.779 329.64L266.868 328.395L264.938 368.913Z" fill="#666666"/>
<path d="M275.513 369.052L264.938 368.908L264.794 379.484L275.37 379.628L275.513 369.052Z" fill="#4F4F4F"/>
<path d="M271.588 388.5L268.334 388.456C265.774 388.421 263.727 386.318 263.762 383.758L263.879 375.194C263.914 372.634 266.017 370.587 268.577 370.622L271.831 370.666C274.391 370.701 276.438 372.804 276.403 375.364L276.286 383.928C276.252 386.488 274.148 388.535 271.588 388.5Z" fill="#666666"/>
<path d="M279.273 299.945H262.309V331.667H279.273V299.945Z" fill="#666666"/>
<path d="M238.845 309.048C257.946 310.515 272.389 304.859 282.559 300.877C299.051 294.419 313.273 288.85 320.502 274.913C328.686 259.135 326.756 234.851 314.463 224.399C283.614 198.168 176.409 235.549 184.501 282.294C187.168 297.7 219.048 307.528 238.845 309.048Z" fill="#429E71"/>
<path d="M239.696 296.805C258.797 298.272 273.24 292.616 283.41 288.634C299.902 282.176 314.124 276.607 321.353 262.67C329.537 246.892 327.607 222.608 315.314 212.156C284.465 185.925 181.229 240.758 185.352 270.051C187.532 285.534 219.899 295.285 239.696 296.805Z" fill="#4ED493"/>
<path d="M246.22 125.973C246.824 116.601 254.008 108.955 263.335 107.864C280.567 105.849 305.053 106.117 317.09 121.233C322.558 128.1 322.429 134.228 324.648 165.072C329.058 226.356 331.608 230.505 326.16 238.137C308.403 263.008 250.671 261.867 236.467 239.145C231.132 230.611 233.477 221.496 236.467 205.384C240.058 186.037 244.066 159.368 246.22 125.973Z" fill="#4ED493"/>
<path d="M324.649 165.074C322.429 134.23 322.559 128.102 317.091 121.235C305.054 106.119 280.568 105.851 263.336 107.866C259.908 108.267 256.774 109.559 254.145 111.492C255.017 111.263 255.906 111.075 256.823 110.967C274.055 108.952 298.541 109.22 310.578 124.336C316.046 131.203 315.917 137.331 318.136 168.175C322.546 229.459 325.096 233.608 319.648 241.24C316.682 245.395 312.596 248.82 307.788 251.543C315.428 248.511 321.931 244.065 326.162 238.139C331.609 230.507 329.059 226.358 324.649 165.074Z" fill="#429E71"/>
<path d="M238.774 149.449C238.774 149.449 235.258 161.855 227.899 187.303L199.398 215.593L203.063 222.067L238.675 200.837L238.411 184.753C237.627 173.349 242.751 174.318 243.231 165.362L238.774 149.449Z" fill="#FFB59E"/>
<path d="M239.917 143.643L224.711 175.532L247.171 180.19L239.917 143.643Z" fill="#E33062"/>
<g opacity="0.29">
<path d="M237.714 160.703C236.955 163.29 236.242 167.402 235.267 173.036C234.121 179.654 233.889 189.75 234.78 190.195C235.398 190.504 236.613 190.008 237.999 188.921C237.743 181.598 237.346 167.134 237.714 160.703Z" fill="#722F85"/>
</g>
<path d="M188.559 284.959L223.805 281.045C223.805 281.045 223.141 369.283 199.782 386.019L188.559 284.959Z" fill="#FFB59E"/>
<path d="M213.256 362.973C213.256 362.973 210.963 379.214 209.849 392.567C209.181 400.579 186.431 403.548 192.912 397.37C199.392 391.192 200.892 398.1 196.408 353.543C201.144 356.443 206.929 357.076 212.18 355.268L213.256 362.973Z" fill="#FFB59E"/>
<path d="M210.422 387.439C210.422 387.439 197.216 394.413 198.198 387.882C198.198 387.882 163.426 403.652 163.616 407.231C163.806 410.81 169.214 417.918 179.468 415.5C202.059 410.172 197.64 404.13 204.141 406.532C208.78 408.246 214.863 404.58 215.037 402.038C215.211 399.496 211.269 391.558 210.422 387.439Z" fill="#6143BA"/>
<path d="M175.738 411.447C187.236 411.405 196.474 405.389 197.693 404.575C199.567 403.323 200.253 402.608 202.932 400.973C207.033 398.471 210.595 396.311 213.408 396.115C214.348 398.625 215.115 400.887 215.036 402.039C214.862 404.581 208.779 408.247 204.141 406.533C197.64 404.131 202.057 410.173 179.467 415.501C171.369 417.411 166.308 413.38 164.438 409.837C166.671 410.162 170.329 411.467 175.738 411.447Z" fill="white"/>
<path d="M203.069 390.78C203.069 390.78 207.527 385.276 204.417 384.12C201.306 382.963 198.363 381.696 198.122 383.436C197.881 385.176 197.805 387.286 197.805 387.286C197.805 387.286 197.168 391.775 203.069 390.78Z" fill="#6143BA"/>
<path d="M188.015 392.518C186.796 392.597 186.341 391.992 186.314 391.956L186.751 391.642C186.754 391.648 187.476 392.533 189.829 391.445C191.207 390.802 192.517 390.715 193.483 390.783C192.25 389.985 190.566 388.656 190.199 387.172C190.023 386.465 190.159 385.798 190.6 385.183C190.985 384.644 191.405 384.417 191.877 384.511C193.678 384.873 195.059 390.612 195.21 391.266C195.224 391.32 195.219 391.377 195.195 391.431C195.141 391.565 194.989 391.627 194.86 391.581C194.837 391.574 192.531 390.787 190.052 391.931C189.213 392.323 188.544 392.484 188.015 392.518ZM191.654 385.03C191.522 385.039 191.307 385.118 191.036 385.496C190.685 385.985 190.584 386.489 190.72 387.043C191.123 388.677 193.478 390.19 194.544 390.802C193.944 388.467 192.787 385.243 191.77 385.04C191.747 385.035 191.707 385.027 191.654 385.03Z" fill="white"/>
<path d="M199.109 397.28C198.881 397.295 197.5 397.266 196.592 394.543C195.748 392.009 194.856 391.579 194.845 391.574C194.715 391.515 194.651 391.362 194.705 391.228C194.727 391.176 194.762 391.134 194.804 391.104C195.346 390.75 200.136 387.686 201.567 388.644C201.947 388.901 202.075 389.369 201.946 390.032C201.795 390.812 201.385 391.397 200.731 391.771C199.355 392.563 197.197 392.209 195.914 391.889C196.271 392.378 196.695 393.155 197.101 394.372C197.906 396.791 199.03 396.748 199.072 396.745H199.074L199.14 397.278C199.136 397.278 199.126 397.279 199.109 397.28ZM195.583 391.243C196.663 391.551 199.081 392.098 200.466 391.306C200.984 391.01 201.297 390.56 201.419 389.932C201.504 389.498 201.452 389.214 201.266 389.09C200.478 388.559 197.547 390.024 195.583 391.243Z" fill="white"/>
<path d="M241.545 232.084L212.484 245.59C205.825 250.051 199.698 255.287 194.453 261.348C192.37 263.755 190.473 266.219 189.256 268.374C188.67 269.411 188.391 270.593 188.361 271.784L188.981 312.894L223.894 317.01L229.168 269.278L281.086 237.801L241.545 232.084Z" fill="#6143BA"/>
<path d="M186.052 302.213C188.32 299.824 189.774 302.97 195.71 304.91C198.186 305.719 201.958 305.73 209.502 305.751C218.752 305.777 219.658 305.376 221.54 304.908C230.565 302.666 228.157 310.027 228.592 312.289C229.217 315.546 227.242 318.779 223.224 322.148C220.844 324.144 221.893 322.378 217.504 321.826C217.504 321.826 211.585 321.082 206.478 320.81C202.465 320.597 194.97 320.715 188.633 320.996C186.052 321.111 184.424 321.219 183.372 319.45C181.076 315.589 183.06 305.364 186.052 302.213Z" fill="#6143BA"/>
<g opacity="0.29">
<path d="M266.896 246.404C264.537 240.403 288.557 244.822 284.784 243.637C274.114 240.287 235.14 252.246 228.978 261.335C225.585 266.341 214.228 274.885 215.855 286.689C216.666 292.57 218.831 293.508 219.767 299.335C221.414 309.591 215.913 314.219 211.497 327.084C205.719 343.919 206.734 360.483 207.596 374.543C207.609 374.757 207.613 374.801 208.641 390.727C209.071 397.393 209.729 398.762 209.362 401.902C209.146 403.75 208.745 405.378 208.266 406.828C210.84 406.397 213.238 404.989 214.365 403.542C214.765 403.029 215.005 402.513 215.038 402.037C215.057 401.767 215.02 401.426 214.955 401.045C214.948 401.005 214.945 400.97 214.937 400.928C214.867 400.554 214.759 400.131 214.629 399.677C214.61 399.612 214.593 399.548 214.573 399.482C214.435 399.019 214.274 398.525 214.094 398.005C214.072 397.941 214.05 397.877 214.027 397.813C213.836 397.267 213.629 396.7 213.41 396.116L213.409 396.113C212.274 393.083 210.887 389.691 210.423 387.438C210.423 387.438 210.367 387.467 210.313 387.495C211.498 375.43 213.257 362.971 213.257 362.971L213.256 362.967C217.082 350.982 219.523 336.426 221.078 322.922C221.685 323.202 222.009 323.166 223.224 322.147C227.242 318.778 229.217 315.544 228.592 312.288C228.233 310.42 229.796 305.086 225.271 304.546L229.168 269.278L266.896 246.404Z" fill="#722F85"/>
</g>
<path d="M229.969 276.256L265.518 275.795C265.518 275.795 269.144 374.011 246.481 391.677L229.969 276.256Z" fill="#FFB59E"/>
<path d="M260.062 361.475C260.062 361.475 257.378 384.424 256.805 397.811C256.462 405.843 233.851 409.73 240.076 403.294C246.302 396.859 248.079 403.701 241.798 359.361C246.648 362.067 252.453 362.466 257.627 360.447L260.062 361.475Z" fill="#FFB59E"/>
<path d="M257.171 392.666C257.171 392.666 244.258 400.168 244.975 393.602C244.975 393.602 210.869 410.765 211.204 414.334C211.539 417.902 217.23 424.786 227.377 421.955C249.734 415.718 245.075 409.86 251.667 411.997C256.371 413.522 262.301 409.613 262.373 407.066C262.444 404.519 258.185 396.748 257.171 392.666Z" fill="#6143BA"/>
<path d="M223.486 418.056C234.972 417.549 243.96 411.164 245.145 410.302C246.967 408.975 247.623 408.233 250.235 406.492C254.232 403.827 257.702 401.524 260.505 401.215C261.546 403.685 262.405 405.914 262.372 407.068C262.3 409.615 256.37 413.524 251.666 411.999C245.074 409.862 249.732 415.72 227.376 421.957C219.361 424.193 214.14 420.37 212.129 416.905C214.374 417.139 218.082 418.294 223.486 418.056Z" fill="white"/>
<path d="M249.96 396.301C249.96 396.301 254.192 390.622 251.037 389.591C247.882 388.561 244.89 387.414 244.719 389.162C244.548 390.91 244.557 393.022 244.557 393.022C244.557 393.022 244.104 397.534 249.96 396.301Z" fill="#6143BA"/>
<path d="M234.154 398.62C233.546 398.499 233.285 398.18 233.264 398.154L233.689 397.824C233.694 397.829 234.459 398.685 236.754 397.504C238.107 396.806 239.415 396.664 240.38 396.696C239.116 395.946 237.38 394.687 236.953 393.218C236.75 392.522 236.857 391.846 237.271 391.216C237.636 390.663 238.056 390.42 238.52 390.493C238.532 390.495 238.547 390.498 238.559 390.501C240.359 390.86 241.951 396.465 242.126 397.109C242.141 397.161 242.14 397.218 242.119 397.274C242.069 397.405 241.914 397.489 241.79 397.435C241.762 397.427 239.432 396.727 237 397.981C235.658 398.67 234.743 398.738 234.154 398.62ZM238.459 391.028C238.453 391.027 238.444 391.025 238.438 391.024C238.349 391.011 238.078 390.967 237.721 391.511C237.39 392.011 237.308 392.522 237.468 393.069C237.938 394.684 240.351 396.101 241.443 396.669C240.753 394.379 239.48 391.232 238.459 391.028Z" fill="white"/>
<path d="M245.905 402.934C245.373 402.828 244.401 402.343 243.636 400.324C242.692 397.828 241.783 397.436 241.774 397.432C241.642 397.378 241.571 397.229 241.619 397.093C241.639 397.039 241.671 396.994 241.713 396.964V396.962C242.24 396.589 246.916 393.316 248.368 394.231C248.76 394.472 248.905 394.932 248.804 395.602C248.684 396.388 248.299 396.988 247.661 397.388C246.316 398.23 244.183 397.967 242.854 397.702C243.231 398.177 243.685 398.934 244.14 400.133C245.055 402.548 246.201 402.424 246.208 402.423L246.297 402.951C246.277 402.957 246.131 402.979 245.905 402.934ZM242.498 397.071C243.588 397.338 246.027 397.78 247.377 396.934C247.885 396.617 248.178 396.154 248.274 395.522C248.342 395.085 248.278 394.805 248.088 394.688C247.277 394.199 244.412 395.774 242.498 397.071Z" fill="white"/>
<path d="M311.17 231.768C311.17 231.768 326.846 264.296 296.099 273.218L270.491 282.036L268.514 311.329L231.81 312.653L227.392 270.863C226.838 266.988 228.504 263.129 231.705 260.876L268.419 235.027C268.419 235.027 275.818 239.948 311.17 231.768Z" fill="#6143BA"/>
<path d="M229.616 308.148C231.642 305.551 233.394 308.54 239.49 309.895C242.032 310.46 245.788 310.105 253.299 309.395C262.508 308.524 263.371 308.037 265.199 307.389C273.964 304.282 272.281 311.842 272.933 314.051C273.871 317.232 272.219 320.642 268.546 324.384C266.371 326.601 267.244 324.742 262.822 324.618C262.822 324.618 256.858 324.451 251.749 324.677C247.735 324.854 240.286 325.698 234.006 326.593C231.449 326.957 229.839 327.223 228.62 325.564C225.96 321.944 226.944 311.574 229.616 308.148Z" fill="#6143BA"/>
<g opacity="0.29">
<path d="M302.615 240.529C302.611 240.511 307.956 246.632 307.952 246.614C307.975 248.36 307.797 250.325 306.738 252.663C303.07 260.759 293.88 262.225 274.284 274.536C272.745 275.503 269.865 277.361 268.026 280.899C265.949 284.898 266.811 288.501 266.92 293.016C266.988 295.844 265.964 300.573 264.049 310.031C261.914 320.57 260.907 323.271 259.816 328.612C257.348 340.685 259.701 340.429 257.909 356.582C256.268 371.365 253.358 380.585 255.246 389.651C255.605 391.377 256.278 393.763 256.808 397.812C257.574 403.657 257.071 405.529 258.283 408.633C258.569 409.366 258.925 410.066 259.307 410.737C260.846 409.804 261.991 408.613 262.295 407.559C262.344 407.391 262.371 407.226 262.376 407.067C262.384 406.797 262.333 406.457 262.253 406.08C262.244 406.04 262.24 406.005 262.23 405.964C262.145 405.593 262.02 405.174 261.871 404.726C261.85 404.662 261.83 404.6 261.808 404.536C261.652 404.08 261.471 403.593 261.27 403.082C261.244 403.016 261.218 402.95 261.192 402.884C260.979 402.347 260.751 401.791 260.509 401.218L260.508 401.216C259.251 398.235 257.728 394.901 257.173 392.669C257.173 392.669 257.122 392.698 257.093 392.715C257.979 379.318 260.065 361.478 260.065 361.478C262.801 348.365 263.904 338.94 264.65 324.948C266.627 325.42 266.843 326.126 268.548 324.388C272.22 320.645 273.873 317.235 272.935 314.055C272.411 312.276 273.515 306.654 268.832 306.654L270.494 282.039L296.102 273.222C312.986 268.322 318.432 254.372 313.248 237.342C311.391 237.425 305.43 240.5 302.615 240.529Z" fill="#722F85"/>
</g>
<path d="M239.202 234.218L239.308 208.738C239.308 208.738 235.829 170.457 238.415 153.486L239.915 143.643C241.383 140.167 247.112 133.835 260.8 133.369L295.716 138.501C311.595 141.646 307.8 165.573 308.303 179.098L311.092 243.747C311.092 243.747 284 250.596 266.769 247.886C247.028 244.78 242.279 235.719 239.202 234.218Z" fill="#E33062"/>
<path d="M327.066 429.085L316.285 428.345V278.07L327.066 278.81V429.085Z" fill="#988EED"/>
<path d="M337.846 426.475L327.066 429.086V278.811L337.846 276.199V426.475Z" fill="#534E82"/>
<path d="M421.589 397.209L410.809 396.469V246.193L421.589 246.933V397.209Z" fill="#988EED"/>
<path d="M432.371 394.597L421.59 397.209V246.933L432.371 244.322V394.597Z" fill="#534E82"/>
<path d="M87.8416 399.941L77.0605 399.201V260.764L87.8416 261.504V399.941Z" fill="#988EED"/>
<path d="M98.6218 397.329L87.8418 399.94V261.503L98.6218 258.891V397.329Z" fill="#534E82"/>
<path d="M432.371 241.172L327.066 267.624L77.0605 248.923L182.367 222.471L432.371 241.172Z" fill="#7770BA"/>
<path d="M327.066 280.157L77.0605 261.456V248.922L327.066 267.623V280.157Z" fill="#988EED"/>
<path d="M432.371 253.706L327.066 280.217V267.683L432.371 241.172V253.706Z" fill="#534E82"/>
<path d="M200.477 214.947C200.477 214.947 178.679 223.404 178.323 232.131C177.935 241.639 182.834 228.287 182.834 228.287L192.762 227.205C197.114 226.73 200.027 225.531 202.407 221.857L203.795 221.157L200.477 214.947Z" fill="#FFB59E"/>
<path d="M196.336 224.313C196.336 224.313 191.316 234.245 195.052 234.421C195.918 234.462 201.822 219.84 201.822 219.84L196.336 224.313Z" fill="#FFB59E"/>
<path d="M260.633 249.54L190.846 233.029L194.264 228.822L295.477 235.11L260.633 249.54Z" fill="#BDBDBD"/>
<path d="M226.402 247.404L226.275 249.439L260.51 251.566L260.637 249.531L226.402 247.404Z" fill="#413D66"/>
<path d="M260.506 251.575L295.349 237.145L295.476 235.109L260.632 249.539L260.506 251.575Z" fill="#424242"/>
<path d="M282.986 174.402C282.986 174.402 281.684 181.461 284.08 201.869L256.67 224.89L269.967 230.042L302.435 210.967C302.435 210.967 304.622 201.869 304.51 173.697L282.986 174.402Z" fill="#FFB59E"/>
<path d="M248.601 230.629L242.278 237.627L239.409 244.287C239.324 244.613 239.549 244.934 239.885 244.96C241.113 245.056 243.826 244.793 245.044 240.918C246.645 235.824 245.257 240.184 245.257 240.184L252.646 232.972L248.601 230.629Z" fill="#FFB59E"/>
<path d="M253.479 231.977L247.942 239.612L245.803 246.541C245.754 246.874 246.012 247.169 246.349 247.159C247.581 247.123 250.25 246.571 251.045 242.588C252.091 237.352 251.178 241.836 251.178 241.836L257.752 233.874L253.479 231.977Z" fill="#FFB59E"/>
<path d="M241.778 230.902L238.327 233.529L234.69 238.874C234.561 239.145 234.703 239.464 234.993 239.544C236.052 239.836 238.471 240.064 240.192 236.878C242.454 232.69 240.502 236.272 240.502 236.272L247.119 231.808L241.778 230.902Z" fill="#FFB59E"/>
<path d="M260.349 223.369L241.615 231.001C241.615 231.001 250.39 234.138 258.22 236.155C263.744 237.578 269.967 230.041 269.967 230.041L260.349 223.369Z" fill="#FFB59E"/>
<path d="M262.276 234.916C262.276 234.916 261.176 237.557 258.966 239.604C258.966 239.604 259.222 242.324 258.851 245.114C258.772 245.708 258.043 245.97 257.622 245.544C256.314 244.22 255.188 241.313 255.361 240.03C256.054 234.895 257.712 229.596 257.712 229.596L262.276 234.916Z" fill="#FFB59E"/>
<path d="M258.239 225.398C258.239 225.398 251.773 223.026 249.002 222.627C249.002 222.627 247.663 228.025 255.794 226.835C263.924 225.644 258.239 225.398 258.239 225.398Z" fill="#FFB59E"/>
<path d="M254.376 251.196L166.82 245.756C163.435 245.546 160.86 242.631 161.071 239.245L147.152 185.718C147.362 182.333 150.277 179.758 153.663 179.969L241.219 185.409C244.605 185.619 247.178 188.535 246.968 191.92L260.888 245.447C260.676 248.832 257.761 251.406 254.376 251.196Z" fill="#424242"/>
<path d="M200.698 216.872C201.887 219.832 200.881 223.022 198.45 223.999C196.019 224.976 193.085 223.368 191.896 220.409C190.707 217.449 191.713 214.259 194.144 213.282C196.574 212.305 199.509 213.912 200.698 216.872Z" fill="#BDBDBD"/>
<path d="M286.253 88.3828C286.253 88.3828 292.822 120.255 278.358 120.561L270.211 96.4298L286.253 88.3828Z" fill="#BD7835"/>
<g opacity="0.29">
<path d="M256.482 146.785C261.57 147.219 264.852 146.521 270.059 149.991C276.953 154.586 286.06 139.14 298.183 144.831C302.813 147.004 304.703 156.735 303.304 160.828C298.843 173.882 296.199 171.663 293.805 210.841C293.676 212.954 295.157 222.651 296.859 231.473L310.608 232.502L308.305 179.098C308.128 164.409 311.596 141.647 295.717 138.501L260.801 133.369C247.113 133.835 241.384 140.168 239.916 143.643C251.116 132.737 245.878 145.879 256.482 146.785Z" fill="#722F85"/>
</g>
<path d="M263.54 155.093C256.098 154.191 256.57 149.171 257.472 141.729L259.629 107.24L276.675 108.639L281.27 141.197C280.368 148.641 270.982 155.996 263.54 155.093Z" fill="#FFB59E"/>
<g opacity="0.29">
<path d="M258.055 134.011C261.85 133.694 272.771 131.431 274.178 115.904L258.826 119.915L258.055 134.011Z" fill="#722F85"/>
</g>
<path d="M258.829 82.9398C244.33 90.4198 249.422 117.026 251.897 121.578C257.081 131.111 261.548 129.092 269.133 125.124C282.553 118.101 279.954 94.7808 279.715 91.9428C279.267 86.6148 267.707 78.3598 258.829 82.9398Z" fill="#FFB59E"/>
<path d="M284.469 110.112C284.472 113.026 282.113 115.39 279.199 115.393C276.285 115.396 273.921 113.037 273.918 110.123C273.915 107.21 276.274 104.845 279.188 104.842C282.101 104.839 284.466 107.199 284.469 110.112Z" fill="#FFB59E"/>
<path d="M277.993 107.204L276.941 95.4036C276.941 95.4036 259.071 98.3846 247.404 92.0196C247.404 92.0196 252.506 63.5636 281.551 82.9416C281.551 82.9416 294.584 84.5146 277.993 107.204Z" fill="#BD7835"/>
<g opacity="0.29">
<path d="M286.407 89.1954C286.421 83.5394 281.549 82.9404 281.549 82.9404C267.697 73.6984 259.293 75.3394 254.289 79.5814C255.7 80.3834 257.285 81.4194 258.829 82.9394C264.596 88.6204 271.418 81.0034 271.015 89.3394C270.64 97.0954 268.955 117.07 273.061 123.661C273.661 124.624 274.233 125.483 274.773 126.253C276.399 128.57 278.973 138.306 277.805 142.057C277.722 142.323 275.977 149.433 276.345 149.989C276.345 149.989 279.096 147.592 280.418 144.265C280.842 143.258 281.144 142.23 281.269 141.198L278.356 120.56C291.446 120.284 287.312 94.1614 286.407 89.1954Z" fill="#722F85"/>
</g>
<path d="M246.968 191.92C247.178 188.535 244.604 185.619 241.219 185.409L153.663 179.969C151.413 179.829 149.392 180.933 148.213 182.674C149.308 181.916 150.64 181.485 152.072 181.574L239.628 187.014C243.013 187.224 245.587 190.14 245.377 193.525L259.297 247.052C259.226 248.188 258.831 249.218 258.236 250.096C259.729 249.062 260.767 247.4 260.888 245.447L246.968 191.92Z" fill="white"/>
<path opacity="0.65" d="M226.565 176.99L160.2 174.098C158.996 174.046 158.036 173.075 157.999 171.87C157.957 170.531 159.062 169.44 160.4 169.498L226.765 172.39C227.969 172.442 228.929 173.413 228.967 174.618C229.007 175.956 227.902 177.048 226.565 176.99Z" fill="#E33062"/>
<path opacity="0.65" d="M247.568 168.83L159.915 165.034C158.711 164.982 157.751 164.01 157.714 162.806C157.672 161.468 158.777 160.376 160.115 160.434L247.768 164.23C248.972 164.282 249.932 165.254 249.97 166.458C250.011 167.796 248.906 168.888 247.568 168.83Z" fill="#867DD1"/>
<path opacity="0.65" d="M247 150.697L159.347 146.901C158.143 146.849 157.183 145.878 157.146 144.673C157.104 143.334 158.209 142.243 159.547 142.301L247.2 146.097C248.404 146.149 249.364 147.121 249.401 148.325C249.442 149.663 248.337 150.755 247 150.697Z" fill="#867DD1"/>
<path opacity="0.65" d="M246.715 141.633L159.062 137.837C157.858 137.785 156.898 136.813 156.861 135.609C156.819 134.271 157.924 133.179 159.262 133.237L246.915 137.033C248.119 137.085 249.079 138.056 249.116 139.261C249.158 140.599 248.053 141.691 246.715 141.633Z" fill="#E33062"/>
<path opacity="0.65" d="M172.68 129.39L158.776 128.77C157.572 128.718 156.612 127.746 156.575 126.542C156.533 125.203 157.638 124.112 158.976 124.17L172.88 124.79C174.084 124.842 175.044 125.814 175.081 127.018C175.123 128.357 174.018 129.448 172.68 129.39Z" fill="#867DD1"/>
<path opacity="0.65" d="M194.831 130.396L180.927 129.776C179.723 129.724 178.763 128.753 178.726 127.548C178.684 126.21 179.789 125.118 181.127 125.176L195.031 125.796C196.235 125.848 197.195 126.819 197.232 128.024C197.273 129.362 196.169 130.454 194.831 130.396Z" fill="#867DD1"/>
<path opacity="0.65" d="M247.184 132.542L203.078 130.782C201.874 130.73 200.914 129.759 200.876 128.554C200.834 127.216 201.939 126.124 203.277 126.182L247.383 127.942C248.587 127.994 249.547 128.966 249.585 130.17C249.627 131.508 248.522 132.6 247.184 132.542Z" fill="#867DD1"/>
<path opacity="0.65" d="M173.538 156.587L159.634 155.967C158.43 155.915 157.47 154.944 157.433 153.739C157.391 152.4 158.496 151.309 159.834 151.367L173.738 151.987C174.942 152.039 175.902 153.011 175.939 154.215C175.981 155.553 174.876 156.645 173.538 156.587Z" fill="#E33062"/>
<path opacity="0.65" d="M195.69 157.593L181.786 156.973C180.582 156.921 179.622 155.949 179.585 154.745C179.543 153.407 180.648 152.315 181.986 152.373L195.89 152.993C197.094 153.045 198.054 154.016 198.091 155.221C198.133 156.559 197.028 157.651 195.69 157.593Z" fill="#E33062"/>
<path opacity="0.65" d="M247.854 177.894L233.95 177.274C232.746 177.222 231.786 176.25 231.749 175.046C231.707 173.707 232.812 172.616 234.15 172.674L248.054 173.294C249.258 173.346 250.218 174.317 250.255 175.522C250.296 176.86 249.191 177.952 247.854 177.894Z" fill="#867DD1"/>
<path opacity="0.65" d="M248.043 159.739L203.937 157.979C202.733 157.927 201.773 156.955 201.736 155.751C201.694 154.412 202.799 153.321 204.137 153.379L248.243 155.139C249.447 155.191 250.407 156.163 250.444 157.367C250.485 158.705 249.38 159.797 248.043 159.739Z" fill="#867DD1"/>
<path d="M364.125 229.573L363.104 229.557C363.161 226.068 364.015 219.288 369.1 213.069C373.549 207.629 379.11 205.333 382.029 204.449L382.325 205.426C379.517 206.276 374.168 208.484 369.891 213.715C365.001 219.695 364.18 226.217 364.125 229.573Z" fill="#4ED493"/>
<path d="M377.022 206.698C377.022 206.698 380.34 197.401 390.448 202.915C400.556 208.429 399.821 213.036 399.821 213.036C399.821 213.036 392.102 210.266 384.383 210.45C376.663 210.635 377.022 206.698 377.022 206.698Z" fill="#4ED493"/>
<path d="M357.982 233.197L357.139 232.621C359.032 229.85 362.126 224.05 361.587 216.344C361.114 209.599 358.021 204.712 356.219 202.398L357.025 201.77C358.898 204.175 362.114 209.257 362.606 216.272C363.166 224.287 359.949 230.317 357.982 233.197Z" fill="#4ED493"/>
<path d="M351.035 195.659C339.598 194.325 337.539 198.511 337.539 198.511C337.539 198.511 342.513 199.899 347.663 202.77L349.318 200.508L348.462 203.228C349.538 203.86 350.611 204.55 351.637 205.313C357.834 209.919 359.814 206.499 359.814 206.499C359.814 206.499 362.472 196.992 351.035 195.659Z" fill="#4ED493"/>
<path d="M366.542 237.08C362.943 224.691 361.846 212.136 363.281 199.766C363.802 195.276 364.668 190.776 365.855 186.389L366.841 186.655C365.668 190.993 364.811 195.444 364.296 199.884C362.876 212.119 363.962 224.538 367.524 236.796L366.542 237.08Z" fill="#4ED493"/>
<path d="M364.537 192.163C364.537 192.163 361.216 182.406 367.542 179.386C373.868 176.366 375.31 175.012 375.31 175.012C375.31 175.012 374.481 180.023 374.565 184.797C374.64 189.101 367.63 194.957 364.537 192.163Z" fill="#4ED493"/>
<path d="M356.227 242.892C357.616 230.066 361.382 218.039 367.419 207.147C369.61 203.193 372.125 199.362 374.892 195.758L375.702 196.379C372.965 199.944 370.479 203.733 368.312 207.642C362.341 218.415 358.616 230.312 357.242 243.003L356.227 242.892Z" fill="#4ED493"/>
<path d="M383.239 193.725L384.956 194.403C386.449 191.292 387.968 188.84 387.968 188.84C387.968 188.84 386.119 189.544 379.12 189.927C372.12 190.311 371.477 200.598 371.477 200.598C373.273 204.359 381.985 201.614 383.554 197.604C383.817 196.931 384.103 196.263 384.397 195.611L383.239 193.725Z" fill="#4ED493"/>
<path d="M374.198 245.277C367.403 246.64 360.278 246.697 353.447 245.444L352.535 245.277L349.422 220.066L349.993 220.239C358.591 222.835 368.142 222.835 376.739 220.239L377.31 220.066L374.198 245.277Z" fill="#E33062"/>
<g opacity="0.29">
<path d="M349.993 220.238L349.422 220.065L350.051 225.162C354.572 226.687 361.26 227.676 367.245 226.203C368.6 225.869 371.555 225.007 371.811 225.573C372.222 226.486 364.581 228.788 362.049 234.547C360.466 238.149 360.886 243.092 362.57 246.32C366.476 246.377 370.388 246.039 374.197 245.275L377.31 220.064L376.739 220.237C368.142 222.834 358.591 222.834 349.993 220.238Z" fill="#722F85"/>
</g>
</svg>
